<mxfile host="app.diagrams.net" modified="2023-09-06T23:46:16.393Z" agent="Mozilla/5.0 (X11; Linux x86_64) AppleWebKit/537.36 (KHTML, like Gecko) Chrome/116.0.0.0 Safari/537.36" version="21.7.0" etag="1o3tCQU0UxD5rI7jSmnB" type="github">
  <diagram name="PÃ¡gina-1" id="C83uUW4K9sJK5HpCRVP3">
    <mxGraphModel>
      <root>
        <mxCell id="0" />
        <mxCell id="1" parent="0" />
      </root>
    </mxGraphModel>
  </diagram>
</mxfile>
